# xmcd
#
# Track frame offsets: 
#        150
#        35755
#        60880
#        89922
#        120232
#        152902
#        181955
#        207462
#        232375
#        256327
#        274477
#        299485
#        322457
#
# Disc length: 4591 seconds
#
# Revision: 1
# Processed by: cddbd v1.5.2PL0 Copyright (c) Steve Scherf et al.
# Submitted via: ExactAudioCopy v1.1
#
DISCID=d411ed0d
DTITLE=Abbi Hübner's Low Down Wizars - Go down to New Orleans Vol.4
DYEAR=2001
DGENRE=Jazz
TTITLE0=undecided
TTITLE1=sweet georgia brown
TTITLE2=she's funny that way
TTITLE3=on treasure island
TTITLE4=the city of a milion dreams
TTITLE5=all of me
TTITLE6=just a closer walk with three
TTITLE7=red sails in the sunset
TTITLE8=when my dreamboat comes home
TTITLE9=save it pretty mama
TTITLE10=make me a pallet on the floor
TTITLE11=go down to new orleans
TTITLE12=jazzwave
EXTD=YEAR: 2001
EXTT0=
EXTT1=
EXTT2=
EXTT3=
EXTT4=
EXTT5=
EXTT6=
EXTT7=
EXTT8=
EXTT9=
EXTT10=
EXTT11=
EXTT12=
PLAYORDER=
